<svg width="47" height="53" viewBox="0 0 47 53" fill="none" xmlns="http://www.w3.org/2000/svg">
<path d="M17.0765 52V43.4317C12.8497 44.4014 8.6322 44.9437 6.64532 40.4076C4.65844 35.8715 1.18131 34.3594 2.17485 33.3514C3.16839 32.3434 6.64532 33.8554 8.63229 37.3836C10.6193 40.9117 13.6271 40.6021 17.0765 38.8956C17.4312 37.0923 18.0699 35.8715 19.0633 34.8634C1.18141 33.3514 3.16829 13.6948 8.13548 10.6707C6.64532 7.14259 7.1423 4.6225 8.13548 2.10244C11.2342 1.70509 13.1814 2.93941 17.0765 5.12658C23.3143 3.97655 26.7256 3.77648 32.4748 5.12658C36.8559 2.52072 38.9216 1.68368 41.4158 2.10249C42.4437 5.11446 42.4976 6.97296 41.4158 10.6707C48.4606 18.0312 45.2748 33.3686 30.4878 34.8634C31.2965 35.7892 32.32 37.7329 32.4748 39.3996C32.6296 41.0663 32.4748 52 32.4748 52" stroke="#D9D8DB" stroke-width="3"/>
</svg>
