<svg width="493" height="582" fill="none" xmlns="http://www.w3.org/2000/svg"><mask id="b" style="mask-type:alpha" maskUnits="userSpaceOnUse" x="0" y="0" width="493" height="582"><path fill-rule="evenodd" clip-rule="evenodd" d="M421.742 215.432c6.028-18.089 8.963-37.131 8.946-55.955-.037-38.761-12.591-78.427-38.826-108.79C365.664 20.365 326.966.713 277.706.019c-.889-.01-1.781-.013-2.678-.01V0H0v225h290c24.285 0 45.368 4.182 63.456 11.441C336.577 255.552 311.089 269 275 269H0v313h25v-25 25H290c66.071 0 117.443-25.133 152.032-64.211 34.176-38.61 50.718-89.366 50.718-139.289 0-49.923-16.542-100.679-50.718-139.289a190.87 190.87 0 0 0-2.565-2.839c-6.843 16.271-15.943 31.597-27.318 45.304 20.141 27.16 30.601 61.659 30.601 96.824 0 39.327-13.083 77.821-38.157 106.149C379.932 512.508 342.429 532 290 532H50V319h224.973c22.501-.112 42.478-3.933 59.989-10.62 22.894-8.807 42.031-22.681 57.047-40.074a146.782 146.782 0 0 0 3.987-4.821v.001c11.273-14.299 19.878-30.64 25.746-48.054ZM290 175H50V50h225c36.45 0 62.126 13.813 79.028 33.376 17.344 20.074 26.633 47.658 26.66 76.147.01 11.067-1.378 21.993-4.093 32.395C351.453 181.083 322.505 175 290 175Z" fill="url(#a)"/></mask><g mask="url(#b)" stroke-width="50"><path d="M25 25h250c174 0 174.5 269 0 269H25v263h265c237 0 237-357 0-357H25V0" stroke="url(#c)"/><path d="M25 25h250c174 0 174.5 269 0 269H25v263h265c237 0 237-357 0-357H25V0" stroke="url(#d)"/><path d="M25 25h250c174 0 174.5 269 0 269H25v263h265c237 0 237-357 0-357H25V0" stroke="url(#e)"/></g><defs><linearGradient id="a" x1="412.341" y1="-43.363" x2="38.802" y2="689.546" gradientUnits="userSpaceOnUse"><stop stop-color="#AD00FF"/><stop offset=".568" stop-color="#9208D2" stop-opacity=".434"/><stop offset="1" stop-opacity="0"/></linearGradient><linearGradient id="c" x1="395.5" y1="-41.5" x2="25" y2="641" gradientUnits="userSpaceOnUse"><stop stop-color="#AD00FF"/><stop offset=".568" stop-color="#9208D2" stop-opacity=".434"/><stop offset="1" stop-opacity="0"/></linearGradient><linearGradient id="d" x1="395.5" y1="-41.5" x2="25" y2="641" gradientUnits="userSpaceOnUse"><stop stop-color="#AD00FF"/><stop offset=".568" stop-color="#9208D2" stop-opacity=".434"/><stop offset="1" stop-opacity="0"/></linearGradient><linearGradient id="e" x1="395.5" y1="-41.5" x2="25" y2="641" gradientUnits="userSpaceOnUse"><stop stop-color="#AD00FF"/><stop offset=".568" stop-color="#9208D2" stop-opacity=".434"/><stop offset="1" stop-opacity="0"/></linearGradient></defs></svg>