<svg width="398" height="87" viewBox="0 0 398 87" fill="none" xmlns="http://www.w3.org/2000/svg">
<g clip-path="url(#clip0_142_833)">
<path d="M79.2662 19.3259C71.5403 8.06036 58.5698 0.669923 43.8725 0.669922C20.1906 0.669922 0.992676 19.8577 0.992677 43.5271C0.992677 46.9706 1.39903 50.3193 2.1664 53.5278L24.0024 31.7032C26.0956 29.6111 29.4896 29.6111 31.5827 31.7032L49.2325 49.3439L79.2662 19.3259Z" fill="#150A1C"/>
<path d="M84.3628 29.3845L53.0227 60.7082C50.9296 62.8002 47.5356 62.8002 45.4424 60.7082L27.7927 43.0675L6.42603 64.423C13.7613 77.5262 27.782 86.3843 43.8726 86.3843C67.5545 86.3843 86.7525 67.1965 86.7525 43.5272C86.7525 38.5716 85.9109 33.8123 84.3628 29.3845Z" fill="#150A1C"/>
<path d="M135.654 54.3613L124.492 54.3613L122.542 60.6699L113.84 60.6699L126.232 26.9001L133.89 26.9001L146.375 60.6699L137.626 60.6699L135.654 54.3613ZM126.441 48.0759L133.704 48.0759L130.061 36.3632L126.441 48.0759Z" fill="#150A1C"/>
<path d="M177.076 60.6699L168.977 60.6699L157.003 39.6566L157.003 60.6699L148.857 60.6699L148.857 26.9001L157.003 26.9001L168.953 47.9134L168.953 26.9001L177.076 26.9001L177.076 60.6699Z" fill="#150A1C"/>
<path d="M201.836 54.3613L190.674 54.3613L188.725 60.6699L180.023 60.6699L192.415 26.9001L200.072 26.9001L212.557 60.6699L203.808 60.6699L201.836 54.3613ZM192.623 48.0759L199.887 48.0759L196.244 36.3632L192.623 48.0759Z" fill="#150A1C"/>
<path d="M223.186 54.4076L237.364 54.4076L237.364 60.6699L215.04 60.6699L215.04 26.9001L223.186 26.9001L223.186 54.4076Z" fill="#150A1C"/>
<path d="M246.669 41.5584L252.888 26.9001L261.683 26.9001L250.8 48.5396L250.8 60.6699L242.539 60.6699L242.539 48.5396L231.678 26.9001L240.427 26.9001L246.669 41.5584Z" fill="#150A1C"/>
<path d="M291.086 33.1856L280.944 33.1856L280.944 60.6699L272.799 60.6699L272.799 33.1856L262.843 33.1856L262.843 26.9001L291.086 26.9001L291.086 33.1856Z" fill="#150A1C"/>
<path d="M303.221 60.6699L295.099 60.6699L295.099 26.9001L303.221 26.9001L303.221 60.6699Z" fill="#150A1C"/>
<path d="M336.221 49.2354C336.112 51.5857 335.477 53.6653 334.317 55.4745C333.157 57.2681 331.526 58.6597 329.42 59.6492C327.332 60.6388 324.941 61.1336 322.251 61.1336C317.81 61.1336 314.314 59.688 311.76 56.7964C309.209 53.9051 307.933 49.8229 307.933 44.5504L307.933 42.8805C307.933 39.5715 308.506 36.6802 309.65 34.2062C310.81 31.7167 312.472 29.7994 314.64 28.4542C316.805 27.0934 319.311 26.4131 322.156 26.4131C326.258 26.4131 329.553 27.4954 332.042 29.6602C334.534 31.8094 335.949 34.7784 336.29 38.5665L328.168 38.5665C328.106 36.51 327.587 35.0334 326.614 34.1366C325.638 33.2398 324.152 32.7913 322.156 32.7913C320.13 32.7913 318.644 33.549 317.701 35.0642C316.758 36.5797 316.263 38.9994 316.217 42.3238L316.217 44.7127C316.217 48.3154 316.666 50.8899 317.562 52.4362C318.475 53.9824 320.038 54.7556 322.251 54.7556C324.122 54.7556 325.552 54.3148 326.543 53.4334C327.534 52.5521 328.059 51.1528 328.121 49.2354L336.221 49.2354Z" fill="#150A1C"/>
<path d="M357.5 51.694C357.5 50.5034 357.073 49.5757 356.222 48.9108C355.388 48.2459 353.911 47.5578 351.791 46.8466C349.672 46.1354 347.938 45.4473 346.594 44.7824C342.216 42.6331 340.027 39.6798 340.027 35.9225C340.027 34.0516 340.567 32.4048 341.65 30.9824C342.749 29.5443 344.295 28.4311 346.291 27.6425C348.287 26.8385 350.53 26.4365 353.021 26.4365C355.45 26.4365 357.622 26.8694 359.541 27.7353C361.475 28.6012 362.976 29.8381 364.044 31.4463C365.111 33.0389 365.645 34.8633 365.645 36.9198L357.524 36.9198C357.524 35.5437 357.097 34.4767 356.246 33.7192C355.412 32.9615 354.273 32.5827 352.835 32.5827C351.381 32.5827 350.228 32.9073 349.377 33.5568C348.543 34.1909 348.124 35.0026 348.124 35.9922C348.124 36.8581 348.588 37.6467 349.516 38.3579C350.444 39.0537 352.078 39.7803 354.413 40.538C356.75 41.2803 358.669 42.0843 360.167 42.9502C363.818 45.053 365.645 47.9521 365.645 51.6477C365.645 54.601 364.53 56.9204 362.303 58.6057C360.075 60.2911 357.02 61.1337 353.137 61.1337C350.399 61.1337 347.916 60.6466 345.689 59.6725C343.476 58.6829 341.804 57.3378 340.676 55.6368C339.561 53.9206 339.004 51.9492 339.004 49.7225L347.173 49.7225C347.173 51.5317 347.638 52.8691 348.566 53.735C349.509 54.5855 351.034 55.0107 353.137 55.0107C354.484 55.0107 355.543 54.7246 356.317 54.1525C357.106 53.5649 357.5 52.7455 357.5 51.694Z" fill="#150A1C"/>
</g>
<defs>
<clipPath id="clip0_142_833">
<rect width="396.639" height="85.7143" fill="white" transform="translate(0.992676 0.669922)"/>
</clipPath>
</defs>
</svg>
