<svg width="333" height="75" viewBox="0 0 333 75" fill="none" xmlns="http://www.w3.org/2000/svg">
<path d="M36.9639 2.63257L36.9639 73.7263L22.3643 73.7263L22.3643 2.63257L36.9639 2.63257ZM58.8389 2.63257L58.8389 14.1072L0.831055 14.1072L0.831055 2.63257L58.8389 2.63257ZM83.1533 20.8943L83.1533 73.7263L69.042 73.7263L69.042 20.8943L83.1533 20.8943ZM68.1631 7.12476C68.1631 5.07398 68.8792 3.38127 70.3115 2.04663C71.7438 0.711996 73.6644 0.0446786 76.0732 0.0446786C78.4495 0.0446787 80.3538 0.711996 81.7861 2.04663C83.251 3.38127 83.9834 5.07398 83.9834 7.12476C83.9834 9.17554 83.251 10.8682 81.7861 12.2029C80.3538 13.5375 78.4495 14.2048 76.0732 14.2048C73.6644 14.2048 71.7438 13.5375 70.3115 12.2029C68.8792 10.8682 68.1631 9.17554 68.1631 7.12476ZM122.653 20.8943L122.653 30.8552L91.8916 30.8552L91.8916 20.8943L122.653 20.8943ZM99.5088 7.85718L113.571 7.85718L113.571 57.8084C113.571 59.3383 113.767 60.5102 114.157 61.324C114.58 62.1378 115.199 62.7074 116.013 63.033C116.826 63.3259 117.852 63.4724 119.089 63.4724C119.968 63.4724 120.749 63.4399 121.433 63.3748C122.149 63.2771 122.751 63.1794 123.239 63.0818L123.288 73.4334C122.084 73.824 120.782 74.1332 119.382 74.3611C117.982 74.5889 116.436 74.7029 114.743 74.7029C111.651 74.7029 108.949 74.1983 106.638 73.1892C104.359 72.1475 102.601 70.4874 101.364 68.2087C100.127 65.9301 99.5088 62.9353 99.5088 59.2244L99.5088 7.85718ZM161.177 61.8123L161.177 38.2771C161.177 36.5844 160.9 35.1358 160.347 33.9314C159.793 32.6944 158.931 31.7341 157.759 31.0505C156.619 30.3669 155.138 30.0251 153.315 30.0251C151.753 30.0251 150.402 30.3018 149.263 30.8552C148.123 31.3761 147.244 32.141 146.626 33.1501C146.007 34.1267 145.698 35.2823 145.698 36.6169L131.636 36.6169C131.636 34.3709 132.157 32.2387 133.198 30.2205C134.24 28.2022 135.754 26.4281 137.739 24.8982C139.725 23.3357 142.085 22.115 144.819 21.2361C147.586 20.3572 150.679 19.9177 154.097 19.9177C158.198 19.9177 161.844 20.6013 165.034 21.9685C168.224 23.3357 170.731 25.3865 172.554 28.1209C174.409 30.8552 175.337 34.2732 175.337 38.3748L175.337 60.9822C175.337 63.8793 175.516 66.2556 175.874 68.1111C176.232 69.934 176.753 71.5291 177.437 72.8962L177.437 73.7263L163.228 73.7263C162.544 72.294 162.023 70.5037 161.665 68.3552C161.34 66.1742 161.177 63.9932 161.177 61.8123ZM163.032 41.5486L163.13 49.5076L155.269 49.5076C153.413 49.5076 151.802 49.7192 150.435 50.1423C149.067 50.5655 147.944 51.1677 147.065 51.949C146.187 52.6977 145.535 53.5766 145.112 54.5857C144.722 55.5948 144.526 56.7016 144.526 57.906C144.526 59.1104 144.803 60.2009 145.356 61.1775C145.91 62.1215 146.707 62.8702 147.749 63.4236C148.791 63.9444 150.011 64.2048 151.411 64.2048C153.527 64.2048 155.366 63.7817 156.929 62.9353C158.491 62.089 159.696 61.0473 160.542 59.8103C161.421 58.5733 161.877 57.4015 161.909 56.2947L165.62 62.2517C165.099 63.5863 164.383 64.9698 163.472 66.4021C162.593 67.8344 161.47 69.1853 160.103 70.4548C158.735 71.6918 157.091 72.7172 155.171 73.531C153.25 74.3123 150.972 74.7029 148.335 74.7029C144.982 74.7029 141.938 74.0356 139.204 72.7009C136.502 71.3337 134.354 69.462 132.759 67.0857C131.196 64.6768 130.415 61.9425 130.415 58.8826C130.415 56.1156 130.936 53.658 131.978 51.5095C133.019 49.3611 134.549 47.5544 136.567 46.0896C138.618 44.5922 141.174 43.4692 144.233 42.7205C147.293 41.9392 150.841 41.5486 154.878 41.5486L163.032 41.5486ZM201.946 32.1736L201.946 73.7263L187.884 73.7263L187.884 20.8943L201.067 20.8943L201.946 32.1736ZM199.896 45.4548L196.087 45.4548C196.087 41.5486 196.591 38.033 197.601 34.908C198.61 31.7504 200.026 29.0649 201.849 26.8513C203.672 24.6052 205.836 22.8962 208.343 21.7244C210.882 20.5199 213.714 19.9177 216.839 19.9177C219.313 19.9177 221.575 20.2758 223.626 20.9919C225.677 21.7081 227.435 22.8474 228.899 24.4099C230.397 25.9724 231.536 28.0395 232.317 30.6111C233.131 33.1827 233.538 36.324 233.538 40.0349L233.538 73.7263L219.378 73.7263L219.378 39.9861C219.378 37.6423 219.052 35.8194 218.401 34.5173C217.75 33.2153 216.79 32.3038 215.521 31.783C214.284 31.2296 212.754 30.9529 210.931 30.9529C209.043 30.9529 207.399 31.3272 205.999 32.0759C204.632 32.8246 203.493 33.8663 202.581 35.2009C201.702 36.503 201.035 38.033 200.579 39.7908C200.123 41.5486 199.896 43.4366 199.896 45.4548ZM299.647 58.8826L316.396 2.63257L332.704 2.63257L307.948 73.7263L297.206 73.7263L299.647 58.8826ZM284.218 2.63257L300.917 58.8826L303.456 73.7263L292.616 73.7263L268.007 2.63257L284.218 2.63257Z" fill="#150A1C"/>
</svg>
