<svg width="182" height="182" viewBox="0 0 182 182" fill="none" xmlns="http://www.w3.org/2000/svg">
<path d="M81.8564 180.033C81.8014 179.944 80.7506 179.86 79.5219 179.847C78.2928 179.834 76.1187 179.644 74.6904 179.424C62.1743 177.5 49.5439 173.12 41.1484 167.793C39.5971 166.809 39.2438 166.426 39.5036 166.008C39.6926 165.704 40.3111 165.849 43.9127 167.042C45.6361 167.612 48.312 168.337 49.8586 168.653C52.4755 169.186 53.01 169.222 57.5473 169.163C64.3545 169.073 66.6892 168.658 74.1238 166.209C88.2846 161.546 91.8185 161.48 105.814 165.616C113.851 167.992 117.016 168.499 123.289 168.414C127.854 168.353 132.15 167.493 137.321 165.603C138.695 165.101 140.077 164.639 140.391 164.576C141.005 164.453 141.301 164.708 141.11 165.196C140.82 165.941 133.581 170.059 129.142 172.004C120.487 175.796 107.083 179.379 100.908 179.55C99.6546 179.585 98.5735 179.702 98.5059 179.812C98.3564 180.051 82.0011 180.269 81.8564 180.033ZM49.6883 162.965C38.4733 161.455 28.7802 156.503 20.5507 148.081C16.0678 143.493 12.7679 138.72 9.45615 132.033C5.12293 123.284 2.07713 111.966 1.61355 102.888C1.4552 99.79 1.60046 82.5584 1.80949 79.6096C2.23561 73.6008 4.50287 64.7562 7.58577 57.0754C8.76859 54.1282 11.8941 47.6962 13.3858 45.1399C13.8408 44.3599 14.3269 43.5255 14.4663 43.2855C17.4704 38.1029 23.2204 30.8153 28.2892 25.7662C32.8836 21.1897 37.2794 17.6044 42.5664 14.122C44.184 13.0566 45.7528 12.0154 46.0525 11.8081C47.1601 11.0423 53.8597 7.57693 56.3062 6.50411C61.729 4.12611 67.9208 2.02277 69.7611 1.93373C70.3625 1.90442 70.9055 1.79814 70.9683 1.69729C71.0309 1.59644 71.5922 1.50725 72.2155 1.49909C73.1738 1.48654 73.3527 1.54764 73.3761 1.89593C73.3987 2.2321 73.0565 2.41932 71.5178 2.91407C65.0731 4.98541 57.6639 8.59541 50.5098 13.1504C45.1348 16.5725 38.8232 21.8977 33.5946 27.422C20.1998 41.5747 12.3343 58.4883 9.81857 78.5516C9.32818 82.4629 9.18271 92.8281 9.56708 96.5044C11.9247 119.07 21.5481 136.854 35.9649 145.288C41.3466 148.436 47.2733 150.061 53.9101 150.209C59.2892 150.327 62.736 149.576 72.4949 146.158C81.6716 142.944 84.1549 142.257 88.1662 141.825C90.8435 141.537 94.0087 141.725 97.1074 142.356C98.954 142.733 106.642 145.035 110.823 146.464C117.258 148.664 122.033 149.489 126.944 149.252C134.993 148.864 142.055 146.322 148.497 141.495C161.128 132.03 169.745 114.879 172.172 94.3764C172.567 91.0383 172.653 80.9123 172.316 77.486C170.827 62.3703 166.467 49.5902 158.821 37.9318C151.317 26.4902 140.632 16.4814 128.739 9.75288C123.867 6.99673 116.476 3.79354 111.734 2.38436C110.234 1.93848 109.844 1.73791 109.847 1.41439C109.849 1.07031 110.016 1.00468 110.92 0.992848C111.509 0.985137 112.04 1.05873 112.1 1.15646C112.16 1.25397 112.763 1.34915 113.44 1.36757C116.475 1.45061 126.124 4.92239 132.687 8.29276C153.66 19.063 168.908 36.9091 176.483 59.5523C178.456 65.4495 180.06 73.0693 180.101 76.7344C180.114 77.8698 180.232 78.9296 180.366 79.1002C180.555 79.3418 180.545 79.3718 180.317 79.237C180.081 79.0976 180.072 79.1517 180.268 79.522C180.565 80.0794 180.318 95.9898 179.931 101.311C179.642 105.303 178.91 109.297 177.507 114.551C172.815 132.123 163.271 146.195 150.413 154.503C145.832 157.463 139.103 160.264 133.87 161.389C131.68 161.86 130.772 161.93 126.081 161.992C119.007 162.084 115.579 161.546 105.954 158.829C95.8366 155.972 94.5163 155.713 90.3775 155.767C86.2381 155.821 84.9103 156.116 74.7469 159.238C65.4185 162.103 62.1572 162.723 55.4309 162.911C52.6295 162.989 50.0453 163.014 49.6883 162.965ZM50.6109 142.962C46.2775 142.545 42.7735 141.545 38.6123 139.539C32.9842 136.825 28.2599 132.519 24.2088 126.409C22.2931 123.52 20.6148 120.429 20.7602 120.057C20.9992 119.444 21.8201 119.734 23.0499 120.864C25.7379 123.333 31.909 127.824 32.6033 127.815C32.7246 127.813 32.9765 127.949 33.1632 128.115C33.6224 128.523 37.2288 130.051 39.2267 130.683C43.2346 131.951 48.4171 132.491 52.7587 132.093C57.8543 131.626 61.4884 130.721 67.1984 128.498C76.1977 124.996 80.9966 123.752 87.6798 123.192C92.6549 122.775 98.4825 123.26 103.744 124.531C106.288 125.145 109.109 126.035 113.363 127.563C117.97 129.219 120.535 129.958 123.546 130.497C133.64 132.305 142.948 130.397 151.307 124.807C153.84 123.113 157.488 120.207 158.822 118.821C159.713 117.895 160.59 117.634 160.815 118.229C161.033 118.806 157.752 124.306 155.212 127.617C153.815 129.44 150.778 132.578 148.955 134.083C144.55 137.72 138.903 140.384 133.075 141.571C130.38 142.121 123.927 142.21 120.939 141.739C117.625 141.217 114.158 140.275 110.236 138.83C101.533 135.625 97.1346 134.719 90.6583 134.797C87.8725 134.831 86.3231 134.963 84.3046 135.337C79.4901 136.229 77.5855 136.819 69.3383 139.98C66.3332 141.131 63.3677 141.962 60.3629 142.493C57.8736 142.935 52.8388 143.176 50.6109 142.962Z" fill="#150A1C"/>
<g clip-path="url(#clip0_142_856)">
<path d="M75.7418 104.307L53.8573 51.2851C52.3028 47.6356 50.7391 45.113 49.1662 43.7172C47.5932 42.3213 45.7744 41.5082 43.7096 41.2777L43.7255 39.346C44.001 39.3424 44.6903 39.3012 45.7931 39.2224C46.8271 39.1444 47.5852 39.1023 48.0674 39.096C50.4787 39.0644 52.9568 39.2895 55.5017 39.7713C58.0471 40.1886 60.4495 41.2517 62.7087 42.9604C64.968 44.6692 66.8746 47.3805 68.4285 51.0943L82.1064 84.2331L91.6099 59.3859L88.0635 50.8373C86.5091 47.1878 84.8076 44.667 82.9589 43.2748C81.1794 41.8817 79.2571 41.0699 77.1924 40.8394L77.2082 38.9077C77.4839 38.9041 78.1042 38.8638 79.0693 38.7868C80.0344 38.7097 80.7581 38.6681 81.2401 38.6618C83.6516 38.6302 86.1297 38.8553 88.6747 39.337C91.2193 39.8188 93.6215 40.914 95.8807 42.6228C98.1407 44.2671 100.047 46.9462 101.601 50.6601L116.091 85.6231L134.144 38.9349L139.104 38.87L114.082 103.805L109.948 103.859L94.3439 66.2068L79.8756 104.253L75.7418 104.307Z" fill="#150A1C"/>
</g>
<defs>
<clipPath id="clip0_142_856">
<rect width="95.393" height="68.5637" fill="white" transform="matrix(0.999914 -0.0130896 -0.00820294 0.999966 43.7395 37.6392)"/>
</clipPath>
</defs>
</svg>
