<svg width="99" height="96" viewBox="0 0 99 96" fill="none" xmlns="http://www.w3.org/2000/svg">
<path fill-rule="evenodd" clip-rule="evenodd" d="M38.6588 68.4105C37.5889 67.5958 37.4219 66.0999 38.0942 64.9353L39.9235 61.767C38.5245 60.592 37.2738 59.2809 36.1821 57.8633L32.8655 59.7781C31.6698 60.4684 30.1298 60.2704 29.3359 59.1409C29.076 58.771 28.8313 58.3881 28.6027 57.9921C28.2754 57.4253 27.9877 56.8434 27.7387 56.2484C27.2195 55.0079 27.8228 53.6289 28.9874 52.9565L32.4167 50.9766C31.84 49.3715 31.4248 47.7085 31.1808 46.0141L27.1099 46.0141C25.7293 46.0141 24.4946 45.0727 24.3718 43.6975C24.3316 43.2472 24.3112 42.7932 24.3112 42.3359C24.3112 41.6815 24.353 41.0338 24.4348 40.394C24.6054 39.0601 25.8174 38.1674 27.1622 38.1674L31.2855 38.1675C31.5899 36.3977 32.0885 34.6374 32.7915 32.915L29.3941 30.9535C28.1984 30.2631 27.5999 28.8304 28.1811 27.5781C28.3714 27.1681 28.5807 26.7648 28.8093 26.3689C29.1366 25.802 29.4967 25.2619 29.8875 24.7487C30.7022 23.6788 32.1981 23.5118 33.3627 24.1842L36.8393 26.1914C37.8741 24.9575 39.0148 23.8389 40.2411 22.8427L38.4622 19.7615C37.7898 18.5969 37.9568 17.101 39.0267 16.2863C39.5399 15.8955 40.08 15.5355 40.6468 15.2082C41.0428 14.9796 41.4461 14.7703 41.8562 14.58C43.1085 13.9987 44.5412 14.5972 45.2315 15.7929L47.0262 18.9014C48.6215 18.2812 50.2785 17.8226 51.9704 17.535L51.9704 13.1489C51.9704 11.8041 52.863 10.5921 54.1969 10.4215C54.8367 10.3397 55.4844 10.2979 56.1389 10.2979C56.5962 10.2979 57.0501 10.3183 57.5004 10.3585C58.8756 10.4813 59.8171 11.716 59.8171 13.0966L59.8171 17.4399C61.4884 17.6835 63.1545 18.099 64.7912 18.6948L66.8978 15.0461C67.5701 13.8815 68.9492 13.2782 70.1897 13.7974C70.7847 14.0465 71.3665 14.3341 71.9333 14.6614C72.3293 14.89 72.7123 15.1347 73.0821 15.3946C74.2117 16.1885 74.4096 17.7285 73.7193 18.9242L71.6656 22.4814C73.0728 23.5712 74.3425 24.794 75.4652 26.1226L78.8766 24.153C80.0412 23.4806 81.5371 23.6476 82.3518 24.7175C82.7426 25.2307 83.1027 25.7708 83.4299 26.3376C83.6585 26.7336 83.8679 27.1369 84.0582 27.5469C84.6394 28.7993 84.0409 30.2319 82.8452 30.9222L79.5365 32.8326C80.2408 34.5469 80.7567 36.3365 81.0723 38.1675L84.7692 38.1675C86.114 38.1675 87.326 39.0601 87.4966 40.394C87.5784 41.0338 87.6202 41.6815 87.6202 42.3359C87.6202 42.7932 87.5998 43.2472 87.5596 43.6975C87.4368 45.0727 86.2022 46.0141 84.8215 46.0141L81.1857 46.0141C80.9425 47.7103 80.5224 49.4013 79.9166 51.0621L83.2519 52.9877C84.4164 53.6601 85.0198 55.0391 84.5006 56.2796C84.2515 56.8747 83.9638 57.4566 83.6366 58.0234C83.408 58.4194 83.1633 58.8023 82.9034 59.1721C82.1095 60.3016 80.5695 60.4996 79.3738 59.8093L76.1255 57.9338C74.901 59.5127 73.5092 60.9182 71.9881 62.1368L74.0873 65.7727C74.7776 66.9683 74.5796 68.5083 73.4501 69.3022C73.0802 69.5622 72.6973 69.8068 72.3013 70.0355C71.7345 70.3627 71.1526 70.6504 70.5576 70.8994C69.3171 71.4186 67.9381 70.8153 67.2657 69.6507L65.1765 66.0321C63.4497 66.6901 61.652 67.1594 59.8171 67.4281L59.8171 70.8083C59.8171 72.1889 58.8756 73.4236 57.5004 73.5464C57.0502 73.5866 56.5962 73.607 56.1389 73.607C55.4844 73.607 54.8367 73.5652 54.1969 73.4833C52.863 73.3127 51.9704 72.1007 51.9704 70.756L51.9704 67.3416C50.1758 67.0373 48.3906 66.5333 46.6444 65.8193L44.8635 68.904C44.1732 70.0996 42.7405 70.6981 41.4882 70.1169C41.0781 69.9266 40.6748 69.7172 40.2788 69.4886C39.712 69.1614 39.1719 68.8013 38.6588 68.4105ZM47.0269 60.7693C57.2367 65.6478 69.4682 61.326 74.3467 51.1162C79.2252 40.9065 74.9034 28.675 64.6936 23.7965C54.4839 18.9179 42.2524 23.2398 37.3739 33.4495C32.4953 43.6593 36.8172 55.8908 47.0269 60.7693Z" fill="#D9D9D9"/>
<path fill-rule="evenodd" clip-rule="evenodd" d="M15.6917 91.9085C15.6107 92.8632 16.2165 93.7527 17.1577 93.9324C17.8055 94.0561 18.4661 94.1474 19.1379 94.2044C19.6495 94.2478 20.1581 94.2705 20.6629 94.2732C21.6383 94.2784 22.4106 93.4961 22.493 92.5242L22.6808 90.3101C24.3908 90.0913 26.0207 89.5845 27.5152 88.8362L28.8805 90.4545C29.4983 91.1869 30.5556 91.3874 31.3481 90.849C31.8938 90.4784 32.4255 90.0758 32.9408 89.6411C33.3332 89.31 33.7089 88.9664 34.0677 88.6114C34.7611 87.9253 34.7541 86.8262 34.1251 86.0806L32.7798 84.4859C33.8153 83.1347 34.6307 81.5995 35.1674 79.9298L37.1781 80.1004C38.1328 80.1813 39.0222 79.5755 39.2019 78.6344C39.3256 77.9865 39.4169 77.3259 39.4739 76.6542C39.5173 76.1425 39.54 75.6339 39.5427 75.1291C39.5479 74.1537 38.7657 73.3815 37.7937 73.299L35.7446 73.1252C35.4969 71.3889 34.9517 69.7383 34.1586 68.2319L35.7533 66.8866C36.4988 66.2577 36.691 65.1754 36.123 64.3824C35.8291 63.9719 35.5167 63.57 35.1856 63.1775C34.7509 62.6622 34.2946 62.1758 33.8193 61.7186C33.1287 61.0544 32.0527 61.074 31.3204 61.6918L29.702 63.057C28.355 62.0677 26.8337 61.2935 25.185 60.7899L25.3729 58.5752C25.4553 57.6033 24.8259 56.7022 23.8635 56.543C23.3655 56.4606 22.8603 56.3973 22.3487 56.3539C21.6769 56.2969 21.0104 56.2756 20.3509 56.2885C19.393 56.3071 18.646 57.0817 18.565 58.0364L18.3721 60.3106C16.7152 60.5717 15.1393 61.1041 13.6958 61.8641L12.1559 60.0387C11.5269 59.2931 10.4447 59.101 9.65162 59.6689C9.24124 59.9628 8.83928 60.2753 8.44682 60.6064C7.93152 61.0411 7.44513 61.4974 6.98787 61.9727C6.32367 62.6633 6.34324 63.7393 6.96105 64.4716L8.52091 66.3206C7.57341 67.6107 6.82328 69.0605 6.31912 70.6291L3.84476 70.4192C2.87282 70.3367 1.9717 70.9662 1.81252 71.9285C1.73014 72.4265 1.66684 72.9317 1.62343 73.4433C1.56645 74.1151 1.54516 74.7816 1.55798 75.4411C1.57661 76.399 2.35127 77.146 3.30597 77.227L5.74192 77.4337C5.97467 79.0647 6.46987 80.6201 7.1865 82.0513L5.33744 83.6112C4.6051 84.229 4.40457 85.2863 4.94297 86.0789C5.3136 86.6245 5.71615 87.1561 6.15084 87.6714C6.48195 88.0639 6.82557 88.4396 7.18061 88.7985C7.86666 89.4918 8.96581 89.4848 9.71137 88.8558L11.5368 87.3159C12.8316 88.3082 14.2953 89.0984 15.8846 89.6349L15.6917 91.9085ZM19.5674 86.6164C25.8387 87.1484 31.3538 82.4957 31.8858 76.2245C32.4178 69.9532 27.7651 64.4381 21.4939 63.9061C15.2226 63.3741 9.70748 68.0267 9.17549 74.298C8.64351 80.5693 13.2961 86.0844 19.5674 86.6164Z" fill="#D9D9D9"/>
</svg>
