<svg width="82" height="92" viewBox="0 0 82 92" fill="none" xmlns="http://www.w3.org/2000/svg">
<circle cx="41" cy="51" r="23" stroke="white" stroke-opacity="0.85" stroke-width="6"/>
<circle cx="41" cy="51" r="38" stroke="white" stroke-opacity="0.85" stroke-width="6"/>
<path d="M63.6879 16.3755L69.5429 15.4838L70.018 15.4114L70.2583 14.9952L73.2583 9.79904C73.9719 8.56308 73.1985 6.99893 71.7832 6.81561L67.2378 6.22687L64.4553 2.58484C63.5888 1.45078 61.8476 1.56308 61.134 2.79904L58.134 7.99519L57.8937 8.41142L58.0686 8.85909L60.2263 14.382L38.8915 52.3243L38.4069 53.1861L39.2631 53.6804L40.5622 54.4304L41.4282 54.9304L41.9282 54.0644L63.6879 16.3755Z" fill="#150A1C" stroke="#150A1C" stroke-width="2"/>
<path fill-rule="evenodd" clip-rule="evenodd" d="M46.2271 41.3189L61.3301 14.4593L59 8.49519L62.75 2L66.4432 6.83397C66.6051 7.04587 66.8449 7.18433 67.1094 7.21859L73.1423 8L69.3923 14.4952L63.0622 15.4593L47.6167 42.2117C50.279 44.2193 52 47.4087 52 51C52 57.0751 47.0751 62 41 62C34.9249 62 30 57.0751 30 51C30 44.9249 34.9249 40 41 40C42.8919 40 44.6723 40.4776 46.2271 41.3189Z" fill="white" fill-opacity="0.85"/>
</svg>
