<svg width="70" height="70" viewBox="0 0 70 70" fill="none" xmlns="http://www.w3.org/2000/svg">
<path fill-rule="evenodd" clip-rule="evenodd" d="M15 0C6.71573 0 0 6.71573 0 15V31.9444H12.2242C12.5079 30.1224 13.3107 28.6335 14.4638 27.5424C15.8987 26.1847 17.786 25.5278 19.6389 25.5278C21.4918 25.5278 23.3791 26.1847 24.814 27.5424C25.9671 28.6335 26.7699 30.1224 27.0536 31.9444H33.5V18.6667V17.1667H35C37.9288 17.1667 39.4419 15.0554 39.4794 12.8083C39.4982 11.68 39.1299 10.6058 38.4272 9.82977C37.7471 9.07869 36.6583 8.5 35 8.5H33.5V7V0H15ZM36.5 0V5.61984C38.2275 5.90592 39.6311 6.68986 40.6509 7.81606C41.9291 9.22754 42.5088 11.07 42.479 12.8583C42.4257 16.0548 40.378 19.3592 36.5 20.0397V31.9444H45.8889H47.3889V33.4444C47.3889 35.1604 48.0353 36.3453 48.9347 37.1212C49.865 37.9238 51.155 38.3611 52.5 38.3611C53.8451 38.3611 55.135 37.9238 56.0653 37.1212C56.9647 36.3453 57.6111 35.1604 57.6111 33.4444V31.9444H59.1111H70V15C70 6.71573 63.2843 0 55 0H36.5ZM70 34.9444H60.4891C60.1765 36.8046 59.2824 38.3079 58.025 39.3927C56.4761 40.729 54.4605 41.3611 52.5 41.3611C50.5395 41.3611 48.5239 40.729 46.975 39.3927C45.7176 38.3079 44.8235 36.8046 44.5109 34.9444H36.5V47.5856C38.8693 47.8635 40.7882 48.8026 42.1809 50.1829C43.8434 51.8305 44.6667 54.0206 44.6667 56.1944C44.6667 58.3683 43.8434 60.5583 42.1809 62.206C40.7882 63.5863 38.8693 64.5254 36.5 64.8032V70H55C63.2843 70 70 63.2843 70 55V34.9444ZM33.5 70V63.3889V61.8889H35C37.3769 61.8889 39.0226 61.1123 40.0691 60.0752C41.1288 59.025 41.6667 57.6178 41.6667 56.1944C41.6667 54.7711 41.1288 53.3639 40.0691 52.3137C39.0226 51.2766 37.3769 50.5 35 50.5H33.5V49V34.9444H25.6667H24.1667V33.4444C24.1667 31.681 23.5571 30.4833 22.752 29.7215C21.9265 28.9403 20.7999 28.5278 19.6389 28.5278C18.4779 28.5278 17.3513 28.9403 16.5258 29.7215C15.7207 30.4833 15.1111 31.681 15.1111 33.4444V34.9444H13.6111H0V55C0 63.2843 6.71573 70 15 70H33.5Z" fill="white" fill-opacity="0.85"/>
</svg>
