<svg width="131" height="155" viewBox="0 0 131 155" fill="none" xmlns="http://www.w3.org/2000/svg">
<mask id="mask0_105_17" style="mask-type:alpha" maskUnits="userSpaceOnUse" x="0" y="0" width="131" height="155">
<path fill-rule="evenodd" clip-rule="evenodd" d="M112.122 57.3744C113.725 52.557 114.505 47.4856 114.5 42.4723C114.491 32.1494 111.153 21.5856 104.179 13.4991C97.2137 5.42366 86.9254 0.18996 73.8294 0.00506489C73.5932 0.00260477 73.3559 0.00164553 73.1175 0.00220078L73.1175 5.34799e-07C73.115 1.78271e-07 73.1126 0 73.1101 0H13.2927H6.64637H0V53.2646V59.9227H6.64637H77.0979C83.5543 59.9227 89.1593 61.0365 93.968 62.9696C89.4807 68.0594 82.7046 71.6409 73.1101 71.6409H6.64637H0V78.299V148.342V155H6.64637V148.342C6.64637 155 6.6464 155 6.64646 155H6.6467H6.64712H6.64771H6.64847H6.64941H6.65052H6.65182H6.65329H6.65495H6.6568H6.65883H6.66106H6.66347H6.66609H6.66889H6.6719H6.67511H6.67853H6.68215H6.68597H6.69001H6.69426H6.69873H6.70341H6.70831H6.71343H6.71878H6.72435H6.73014H6.73617H6.74243H6.74893H6.75566H6.76263H6.76984H6.77729H6.78499H6.79294H6.80113H6.80958H6.81828H6.82724H6.83645H6.84593H6.85567H6.86567H6.87594H6.88648H6.8973H6.90838H6.91974H6.93138H6.9433H6.9555H6.96799H6.98076H6.99382H7.00718H7.02082H7.03477H7.04901H7.06354H7.07839H7.09353H7.10898H7.12475H7.14082H7.1572H7.1739H7.19092H7.20826H7.22591H7.2439H7.2622H7.28084H7.29981H7.31911H7.33874H7.35872H7.37903H7.39968H7.42068H7.44202H7.46371H7.48575H7.50814H7.53089H7.55399H7.57745H7.60128H7.62546H7.65002H7.67494H7.70023H7.72589H7.75193H7.77834H7.80513H7.8323H7.85986H7.8878H7.91612H7.94484H7.97395H8.00345H8.03335H8.06365H8.09435H8.12545H8.15695H8.18886H8.22118H8.25392H8.28706H8.32063H8.3546H8.38901H8.42383H8.45907H8.49475H8.53085H8.56738H8.60435H8.64175H8.67959H8.71787H8.7566H8.79576H8.83537H8.87544H8.91595H8.95691H8.99833H9.04021H9.08255H9.12534H9.16861H9.21233H9.25653H9.3012H9.34634H9.39195H9.43804H9.48461H9.53167H9.5792H9.62722H9.67573H9.72473H9.77422H9.82421H9.87469H9.92567H9.97716H10.0291H10.0816H10.1346H10.1881H10.2422H10.2967H10.3518H10.4073H10.4634H10.52H10.5772H10.6348H10.693H10.7518H10.811H10.8708H10.9311H10.992H11.0534H11.1154H11.1779H11.241H11.3046H11.3687H11.4335H11.4987H11.5646H11.631H11.6979H11.7655H11.8336H11.9023H11.9715H12.0413H12.1117H12.1827H12.2542H12.3264H12.3991H12.4724H12.5463H12.6209H12.6959H12.7716H12.8479H12.9248H13.0023H13.0804H13.1591H13.2385H13.3184H13.399H13.4801H13.5619H13.6443H13.7274H13.811H13.8953H13.9802H14.0658H14.1519H14.2388H14.3262H14.4143H14.5031H14.5925H14.6825H14.7732H14.8645H14.9565H15.0491H15.1425H15.2364H15.331H15.4263H15.5223H15.6189H15.7162H15.8142H15.9129H16.0122H16.1122H16.2129H16.3143H16.4163H16.5191H16.6225H16.7267H16.8315H16.9371H17.0433H17.1502H17.2579H17.3662H17.4753H17.585H17.6955H17.8067H17.9186H18.0312H18.1446H18.2587H18.3735H18.489H18.6053H18.7223H18.84H18.9585H19.0777H19.1976H19.3183H19.4398H19.5619H19.6849H19.8086H19.933H20.0582H20.1842H20.3109H20.4384H20.5666H20.6957H20.8254H20.956H21.0873H21.2195H21.3523H21.486H21.6205H21.7557H21.8917H22.0286H22.1662H22.3046H22.4438H22.5838H22.7246H22.8662H23.0086H23.1518H23.2958H23.4407H23.5863H23.7328H23.8801H24.0282H24.1771H24.3268H24.4774H24.6288H24.7811H24.9341H25.088H25.2428H25.3984H25.5548H25.7121H25.8702H26.0291H26.189H26.3496H26.5112H26.6735H26.8368H27.0009H27.1659H27.3317H27.4984H27.666H27.8344H28.0037H28.1739H28.345H28.517H28.6898H28.8636H29.0382H29.2137H29.3901H29.5674H29.7456H29.9247H30.1047H30.2855H30.4673H30.6501H30.8337H31.0182H31.2037H31.39H31.5773H31.7655H31.9546H32.1447H32.3357H32.5276H32.7204H32.9142H33.1089H33.3045H33.5011H33.6987H33.8971H34.0966H34.2969H34.4983H34.7005H34.9038H35.108H35.3131H35.5192H35.7263H35.9344H36.1434H36.3534H36.5643H36.7763H36.9892H37.2031H37.4179H37.6338H37.8506H38.0685H38.2873H38.5071H38.7279H38.9497H39.1726H39.3964H39.6212H39.847H40.0738H40.3017H40.5305H40.7604H40.9913H41.2232H41.4561H41.6901H41.9251H42.1611H42.3981H42.6362H42.8753H43.1154H43.3566H43.5988H43.8421H44.0864H44.3317H44.5782H44.8256H45.0741H45.3237H45.5743H45.826H46.0788H46.3326H46.5875H46.8434H47.1005H47.3586H47.6177H47.878H48.1393H48.4017H48.6652H48.9298H49.1955H49.4623H49.7301H49.9991H50.2692H50.5403H50.8126H51.086H51.3604H51.636H51.9127H52.1905H52.4694H52.7495H53.0306H53.3129H53.5963H53.8808H54.1665H54.4533H54.7412H55.0303H55.3205H55.6118H55.9043H56.1979H56.4927H56.7886H57.0857H57.3839H57.6833H57.9838H58.2855H58.5883H58.8924H59.1976H59.5039H59.8114H60.1201H60.43H60.741H61.0533H61.3667H61.6812H61.997H62.314H62.6321H62.9515H63.272H63.5937H63.9167H64.2408H64.5661H64.8927H65.2204H65.5494H65.8796H66.211H66.5436H66.8774H67.2124H67.5487H67.8862H68.2249H68.5648H68.906H69.2484H69.592H69.9369H70.2831H70.6304H70.979H71.3289H71.68H72.0323H72.386H72.7408H73.0969H73.4543H73.813H74.1729H74.5341H74.8965H75.2602H75.6252H75.9915H76.359H76.7278H77.0979C94.6632 155 108.321 148.306 117.516 137.899C126.602 127.616 131 114.099 131 100.803C131 87.5075 126.602 73.9902 117.516 63.7075C117.292 63.4532 117.064 63.2012 116.834 62.9514C115.015 67.2847 112.596 71.3663 109.572 75.0167C114.926 82.2501 117.707 91.4381 117.707 100.803C117.707 111.277 114.229 121.529 107.563 129.073C101.007 136.493 91.0365 141.684 77.0979 141.684H76.7278H76.359H75.9915H75.6252H75.2602H74.8965H74.5341H74.1729H73.813H73.4543H73.0969H72.7408H72.386H72.0323H71.68H71.3289H70.979H70.6304H70.2831H69.9369H69.592H69.2484H68.906H68.5648H68.2249H67.8862H67.5487H67.2124H66.8774H66.5436H66.211H65.8796H65.5494H65.2204H64.8927H64.5661H64.2408H63.9167H63.5937H63.272H62.9515H62.6321H62.314H61.997H61.6812H61.3667H61.0533H60.741H60.43H60.1201H59.8114H59.5039H59.1976H58.8924H58.5883H58.2855H57.9838H57.6833H57.3839H57.0857H56.7886H56.4927H56.1979H55.9043H55.6118H55.3205H55.0303H54.7412H54.4533H54.1665H53.8808H53.5963H53.3129H53.0306H52.7495H52.4694H52.1905H51.9127H51.636H51.3604H51.086H50.8126H50.5403H50.2692H49.9991H49.7301H49.4623H49.1955H48.9298H48.6652H48.4017H48.1393H47.878H47.6177H47.3586H47.1005H46.8434H46.5875H46.3326H46.0788H45.826H45.5743H45.3237H45.0741H44.8256H44.5782H44.3317H44.0864H43.8421H43.5988H43.3566H43.1154H42.8753H42.6362H42.3981H42.1611H41.9251H41.6901H41.4561H41.2232H40.9913H40.7604H40.5305H40.3017H40.0738H39.847H39.6212H39.3964H39.1726H38.9497H38.7279H38.5071H38.2873H38.0685H37.8506H37.6338H37.4179H37.2031H36.9892H36.7763H36.5643H36.3534H36.1434H35.9344H35.7263H35.5192H35.3131H35.108H34.9038H34.7005H34.4983H34.2969H34.0966H33.8971H33.6987H33.5011H33.3045H33.1089H32.9142H32.7204H32.5276H32.3357H32.1447H31.9546H31.7655H31.5773H31.39H31.2037H31.0182H30.8337H30.6501H30.4673H30.2855H30.1047H29.9247H29.7456H29.5674H29.3901H29.2137H29.0382H28.8636H28.6898H28.517H28.345H28.1739H28.0037H27.8344H27.666H27.4984H27.3317H27.1659H27.0009H26.8368H26.6735H26.5112H26.3496H26.189H26.0291H25.8702H25.7121H25.5548H25.3984H25.2428H25.088H24.9341H24.7811H24.6288H24.4774H24.3268H24.1771H24.0282H23.8801H23.7328H23.5863H23.4407H23.2958H23.1518H23.0086H22.8662H22.7246H22.5838H22.4438H22.3046H22.1662H22.0286H21.8917H21.7557H21.6205H21.486H21.3523H21.2195H21.0873H20.956H20.8254H20.6957H20.5666H20.4384H20.3109H20.1842H20.0582H19.933H19.8086H19.6849H19.5619H19.4398H19.3183H19.1976H19.0777H18.9585H18.84H18.7223H18.6053H18.489H18.3735H18.2587H18.1446H18.0312H17.9186H17.8067H17.6955H17.585H17.4753H17.3662H17.2579H17.1502H17.0433H16.9371H16.8315H16.7267H16.6225H16.5191H16.4163H16.3143H16.2129H16.1122H16.0122H15.9129H15.8142H15.7162H15.6189H15.5223H15.4263H15.331H15.2364H15.1425H15.0491H14.9565H14.8645H14.7732H14.6825H14.5925H14.5031H14.4143H14.3262H14.2388H14.1519H14.0658H13.9802H13.8953H13.811H13.7274H13.6443H13.5619H13.4801H13.399H13.3184H13.2927V84.957H73.103C79.085 84.9272 84.3959 83.9095 89.0512 82.1286C95.1378 79.7833 100.225 76.0882 104.217 71.4562C104.581 71.0348 104.934 70.6067 105.277 70.1722C105.277 70.1723 105.277 70.1723 105.277 70.1723C108.274 66.3642 110.562 62.0124 112.122 57.3744ZM77.0979 46.6065H13.2927V13.3162H73.1101C82.8005 13.3162 89.6266 16.9949 94.1201 22.2049C98.7311 27.551 101.201 34.8974 101.208 42.4847C101.21 45.4319 100.842 48.342 100.12 51.1121C93.4355 48.2267 85.7396 46.6065 77.0979 46.6065Z" fill="url(#paint0_linear_105_17)"/>
</mask>
<g mask="url(#mask0_105_17)">
<path fill-rule="evenodd" clip-rule="evenodd" d="M13.2927 46.6065H77.0979C85.7396 46.6065 93.4355 48.2267 100.12 51.1121C100.842 48.342 101.21 45.4319 101.208 42.4847C101.201 34.8974 98.7311 27.551 94.1201 22.2049C89.6266 16.9949 82.8005 13.3162 73.1101 13.3162H13.2927V46.6065ZM0 0V59.9227H77.0979C83.5543 59.9227 89.1593 61.0365 93.968 62.9696C89.4807 68.0594 82.7046 71.6409 73.1101 71.6409H0V155H6.64637V148.342C6.64637 155 6.64632 155 6.64637 155H77.0979C94.6632 155 108.321 148.306 117.516 137.899C126.602 127.616 131 114.099 131 100.803C131 87.5075 126.602 73.9902 117.516 63.7075C115.779 61.7409 113.882 59.9069 111.829 58.2257C113.63 53.1565 114.505 47.7819 114.5 42.4723C114.491 32.1494 111.153 21.5856 104.179 13.4991C97.0866 5.27638 86.549 0 73.1101 0H0ZM105.277 70.1722C104.934 70.6067 104.581 71.0348 104.217 71.4562C97.1255 79.6849 86.5765 84.957 73.1101 84.957H13.2927V141.684H77.0979C91.0365 141.684 101.007 136.493 107.563 129.073C114.229 121.529 117.707 111.277 117.707 100.803C117.707 90.3297 114.229 80.0777 107.563 72.5334C106.843 71.7181 106.081 70.9298 105.277 70.1722Z" fill="url(#paint1_linear_105_17)" fill-opacity="0.7"/>
<path fill-rule="evenodd" clip-rule="evenodd" d="M13.2927 46.6065H77.0979C85.7396 46.6065 93.4355 48.2267 100.12 51.1121C100.842 48.342 101.21 45.4319 101.208 42.4847C101.201 34.8974 98.7311 27.551 94.1201 22.2049C89.6266 16.9949 82.8005 13.3162 73.1101 13.3162H13.2927V46.6065ZM0 0V59.9227H77.0979C83.5543 59.9227 89.1593 61.0365 93.968 62.9696C89.4807 68.0594 82.7046 71.6409 73.1101 71.6409H0V155H6.64637V148.342C6.64637 155 6.64632 155 6.64637 155H77.0979C94.6632 155 108.321 148.306 117.516 137.899C126.602 127.616 131 114.099 131 100.803C131 87.5075 126.602 73.9902 117.516 63.7075C115.779 61.7409 113.882 59.9069 111.829 58.2257C113.63 53.1565 114.505 47.7819 114.5 42.4723C114.491 32.1494 111.153 21.5856 104.179 13.4991C97.0866 5.27638 86.549 0 73.1101 0H0ZM105.277 70.1722C104.934 70.6067 104.581 71.0348 104.217 71.4562C97.1255 79.6849 86.5765 84.957 73.1101 84.957H13.2927V141.684H77.0979C91.0365 141.684 101.007 136.493 107.563 129.073C114.229 121.529 117.707 111.277 117.707 100.803C117.707 90.3297 114.229 80.0777 107.563 72.5334C106.843 71.7181 106.081 70.9298 105.277 70.1722Z" fill="url(#paint2_linear_105_17)" fill-opacity="0.7"/>
<path fill-rule="evenodd" clip-rule="evenodd" d="M13.2927 46.6065H77.0979C85.7396 46.6065 93.4355 48.2267 100.12 51.1121C100.842 48.342 101.21 45.4319 101.208 42.4847C101.201 34.8974 98.7311 27.551 94.1201 22.2049C89.6266 16.9949 82.8005 13.3162 73.1101 13.3162H13.2927V46.6065ZM0 0V59.9227H77.0979C83.5543 59.9227 89.1593 61.0365 93.968 62.9696C89.4807 68.0594 82.7046 71.6409 73.1101 71.6409H0V155H6.64637V148.342C6.64637 155 6.64632 155 6.64637 155H77.0979C94.6632 155 108.321 148.306 117.516 137.899C126.602 127.616 131 114.099 131 100.803C131 87.5075 126.602 73.9902 117.516 63.7075C115.779 61.7409 113.882 59.9069 111.829 58.2257C113.63 53.1565 114.505 47.7819 114.5 42.4723C114.491 32.1494 111.153 21.5856 104.179 13.4991C97.0866 5.27638 86.549 0 73.1101 0H0ZM105.277 70.1722C104.934 70.6067 104.581 71.0348 104.217 71.4562C97.1255 79.6849 86.5765 84.957 73.1101 84.957H13.2927V141.684H77.0979C91.0365 141.684 101.007 136.493 107.563 129.073C114.229 121.529 117.707 111.277 117.707 100.803C117.707 90.3297 114.229 80.0777 107.563 72.5334C106.843 71.7181 106.081 70.9298 105.277 70.1722Z" fill="url(#paint3_linear_105_17)" fill-opacity="0.7"/>
</g>
<defs>
<linearGradient id="paint0_linear_105_17" x1="109.623" y1="-11.5485" x2="10.0381" y2="183.5" gradientUnits="userSpaceOnUse">
<stop stop-color="#AD00FF"/>
<stop offset="0.568054" stop-color="#9208D2" stop-opacity="0.4342"/>
<stop offset="1" stop-opacity="0"/>
</linearGradient>
<linearGradient id="paint1_linear_105_17" x1="105.146" y1="-11.0524" x2="6.37842" y2="170.567" gradientUnits="userSpaceOnUse">
<stop stop-color="#9400D8"/>
<stop offset="0.568054" stop-color="#75229B" stop-opacity="0.4342"/>
<stop offset="1" stop-opacity="0"/>
</linearGradient>
<linearGradient id="paint2_linear_105_17" x1="105.146" y1="-11.0524" x2="6.37842" y2="170.567" gradientUnits="userSpaceOnUse">
<stop stop-color="#9400D8"/>
<stop offset="0.568054" stop-color="#75229B" stop-opacity="0.4342"/>
<stop offset="1" stop-opacity="0"/>
</linearGradient>
<linearGradient id="paint3_linear_105_17" x1="105.146" y1="-11.0524" x2="6.37842" y2="170.567" gradientUnits="userSpaceOnUse">
<stop stop-color="#9400D8"/>
<stop offset="0.568054" stop-color="#75229B" stop-opacity="0.4342"/>
<stop offset="1" stop-opacity="0"/>
</linearGradient>
</defs>
</svg>
